<svg width="391" height="69" viewBox="0 0 391 69" fill="none" xmlns="http://www.w3.org/2000/svg">
<path d="M88.5566 39.2852C88.5566 38.2891 88.2051 37.5273 87.502 37C86.7988 36.4609 85.5332 35.8984 83.7051 35.3125C81.877 34.7148 80.4297 34.1289 79.3633 33.5547C76.457 31.9844 75.0039 29.8691 75.0039 27.209C75.0039 25.8262 75.3906 24.5957 76.1641 23.5176C76.9492 22.4277 78.0684 21.5781 79.5215 20.9688C80.9863 20.3594 82.627 20.0547 84.4434 20.0547C86.2715 20.0547 87.9004 20.3887 89.3301 21.0566C90.7598 21.7129 91.8672 22.6445 92.6523 23.8516C93.4492 25.0586 93.8477 26.4297 93.8477 27.9648H88.5742C88.5742 26.793 88.2051 25.8848 87.4668 25.2402C86.7285 24.584 85.6914 24.2559 84.3555 24.2559C83.0664 24.2559 82.0645 24.5312 81.3496 25.082C80.6348 25.6211 80.2773 26.3359 80.2773 27.2266C80.2773 28.0586 80.6934 28.7559 81.5254 29.3184C82.3691 29.8809 83.6055 30.4082 85.2344 30.9004C88.2344 31.8027 90.4199 32.9219 91.791 34.2578C93.1621 35.5938 93.8477 37.2578 93.8477 39.25C93.8477 41.4648 93.0098 43.2051 91.334 44.4707C89.6582 45.7246 87.4023 46.3516 84.5664 46.3516C82.5977 46.3516 80.8047 45.9941 79.1875 45.2793C77.5703 44.5527 76.334 43.5625 75.4785 42.3086C74.6348 41.0547 74.2129 39.6016 74.2129 37.9492H79.5039C79.5039 40.7734 81.1914 42.1855 84.5664 42.1855C85.8203 42.1855 86.7988 41.9336 87.502 41.4297C88.2051 40.9141 88.5566 40.1992 88.5566 39.2852ZM108.49 44.0664C107.236 45.5898 105.502 46.3516 103.287 46.3516C101.248 46.3516 99.6895 45.7656 98.6113 44.5938C97.5449 43.4219 97 41.7051 96.9766 39.4434V26.9805H102.057V39.2676C102.057 41.248 102.959 42.2383 104.764 42.2383C106.486 42.2383 107.67 41.6406 108.314 40.4453V26.9805H113.412V46H108.631L108.49 44.0664ZM134.365 36.666C134.365 39.5957 133.697 41.9453 132.361 43.7148C131.037 45.4727 129.244 46.3516 126.982 46.3516C125.061 46.3516 123.508 45.6836 122.324 44.3477V53.3125H117.244V26.9805H121.955L122.131 28.8438C123.361 27.3672 124.967 26.6289 126.947 26.6289C129.291 26.6289 131.113 27.4961 132.414 29.2305C133.715 30.9648 134.365 33.3555 134.365 36.4023V36.666ZM129.285 36.2969C129.285 34.5273 128.969 33.1621 128.336 32.2012C127.715 31.2402 126.807 30.7598 125.611 30.7598C124.018 30.7598 122.922 31.3691 122.324 32.5879V40.375C122.945 41.6289 124.053 42.2559 125.646 42.2559C128.072 42.2559 129.285 40.2695 129.285 36.2969ZM146.283 46.3516C143.494 46.3516 141.221 45.4961 139.463 43.7852C137.717 42.0742 136.844 39.7949 136.844 36.9473V36.4551C136.844 34.5449 137.213 32.8398 137.951 31.3398C138.689 29.8281 139.732 28.668 141.08 27.8594C142.439 27.0391 143.986 26.6289 145.721 26.6289C148.322 26.6289 150.367 27.4492 151.855 29.0898C153.355 30.7305 154.105 33.0566 154.105 36.0684V38.1426H141.994C142.158 39.3848 142.65 40.3809 143.471 41.1309C144.303 41.8809 145.352 42.2559 146.617 42.2559C148.574 42.2559 150.104 41.5469 151.205 40.1289L153.701 42.9238C152.939 44.002 151.908 44.8457 150.607 45.4551C149.307 46.0527 147.865 46.3516 146.283 46.3516ZM145.703 30.7422C144.695 30.7422 143.875 31.082 143.242 31.7617C142.621 32.4414 142.223 33.4141 142.047 34.6797H149.113V34.2754C149.09 33.1504 148.785 32.2832 148.199 31.6738C147.613 31.0527 146.781 30.7422 145.703 30.7422ZM167.693 31.7441C167.002 31.6504 166.393 31.6035 165.865 31.6035C163.943 31.6035 162.684 32.2539 162.086 33.5547V46H157.006V26.9805H161.805L161.945 29.248C162.965 27.502 164.377 26.6289 166.182 26.6289C166.744 26.6289 167.271 26.7051 167.764 26.8574L167.693 31.7441ZM189.754 24.6777H181.914V46H176.641V24.6777H168.906V20.4062H189.754V24.6777ZM201.971 31.7441C201.279 31.6504 200.67 31.6035 200.143 31.6035C198.221 31.6035 196.961 32.2539 196.363 33.5547V46H191.283V26.9805H196.082L196.223 29.248C197.242 27.502 198.654 26.6289 200.459 26.6289C201.021 26.6289 201.549 26.7051 202.041 26.8574L201.971 31.7441ZM214.926 46C214.691 45.543 214.521 44.9746 214.416 44.2949C213.186 45.666 211.586 46.3516 209.617 46.3516C207.754 46.3516 206.207 45.8125 204.977 44.7344C203.758 43.6562 203.148 42.2969 203.148 40.6562C203.148 38.6406 203.893 37.0938 205.381 36.0156C206.881 34.9375 209.043 34.3926 211.867 34.3809H214.205V33.291C214.205 32.4121 213.977 31.709 213.52 31.1816C213.074 30.6543 212.365 30.3906 211.393 30.3906C210.537 30.3906 209.863 30.5957 209.371 31.0059C208.891 31.416 208.65 31.9785 208.65 32.6934H203.57C203.57 31.5918 203.91 30.5723 204.59 29.6348C205.27 28.6973 206.23 27.9648 207.473 27.4375C208.715 26.8984 210.109 26.6289 211.656 26.6289C214 26.6289 215.857 27.2207 217.229 28.4043C218.611 29.5762 219.303 31.2285 219.303 33.3613V41.6055C219.314 43.4102 219.566 44.7754 220.059 45.7012V46H214.926ZM210.725 42.4668C211.475 42.4668 212.166 42.3027 212.799 41.9746C213.432 41.6348 213.9 41.1836 214.205 40.6211V37.3516H212.307C209.764 37.3516 208.41 38.2305 208.246 39.9883L208.229 40.2871C208.229 40.9199 208.451 41.4414 208.896 41.8516C209.342 42.2617 209.951 42.4668 210.725 42.4668ZM227.881 26.9805L228.039 29.1777C229.398 27.4785 231.221 26.6289 233.506 26.6289C235.521 26.6289 237.021 27.2207 238.006 28.4043C238.99 29.5879 239.494 31.3574 239.518 33.7129V46H234.438V33.8359C234.438 32.7578 234.203 31.9785 233.734 31.498C233.266 31.0059 232.486 30.7598 231.396 30.7598C229.967 30.7598 228.895 31.3691 228.18 32.5879V46H223.1V26.9805H227.881ZM253.686 40.7441C253.686 40.123 253.375 39.6367 252.754 39.2852C252.145 38.9219 251.16 38.5996 249.801 38.3184C245.277 37.3691 243.016 35.4473 243.016 32.5527C243.016 30.8652 243.713 29.459 245.107 28.334C246.514 27.1973 248.348 26.6289 250.609 26.6289C253.023 26.6289 254.951 27.1973 256.393 28.334C257.846 29.4707 258.572 30.9473 258.572 32.7637H253.492C253.492 32.0371 253.258 31.4395 252.789 30.9707C252.32 30.4902 251.588 30.25 250.592 30.25C249.736 30.25 249.074 30.4434 248.605 30.8301C248.137 31.2168 247.902 31.709 247.902 32.3066C247.902 32.8691 248.166 33.3262 248.693 33.6777C249.232 34.0176 250.135 34.3164 251.4 34.5742C252.666 34.8203 253.732 35.1016 254.6 35.418C257.283 36.4023 258.625 38.1074 258.625 40.5332C258.625 42.2676 257.881 43.6738 256.393 44.752C254.904 45.8184 252.982 46.3516 250.627 46.3516C249.033 46.3516 247.615 46.0703 246.373 45.5078C245.143 44.9336 244.176 44.1543 243.473 43.1699C242.77 42.1738 242.418 41.1016 242.418 39.9531H247.234C247.281 40.8555 247.615 41.5469 248.236 42.0273C248.857 42.5078 249.689 42.748 250.732 42.748C251.705 42.748 252.438 42.5664 252.93 42.2031C253.434 41.8281 253.686 41.3418 253.686 40.7441ZM279.033 36.666C279.033 39.5957 278.365 41.9453 277.029 43.7148C275.705 45.4727 273.912 46.3516 271.65 46.3516C269.729 46.3516 268.176 45.6836 266.992 44.3477V53.3125H261.912V26.9805H266.623L266.799 28.8438C268.029 27.3672 269.635 26.6289 271.615 26.6289C273.959 26.6289 275.781 27.4961 277.082 29.2305C278.383 30.9648 279.033 33.3555 279.033 36.4023V36.666ZM273.953 36.2969C273.953 34.5273 273.637 33.1621 273.004 32.2012C272.383 31.2402 271.475 30.7598 270.279 30.7598C268.686 30.7598 267.59 31.3691 266.992 32.5879V40.375C267.613 41.6289 268.721 42.2559 270.314 42.2559C272.74 42.2559 273.953 40.2695 273.953 36.2969ZM293.219 46C292.984 45.543 292.814 44.9746 292.709 44.2949C291.479 45.666 289.879 46.3516 287.91 46.3516C286.047 46.3516 284.5 45.8125 283.27 44.7344C282.051 43.6562 281.441 42.2969 281.441 40.6562C281.441 38.6406 282.186 37.0938 283.674 36.0156C285.174 34.9375 287.336 34.3926 290.16 34.3809H292.498V33.291C292.498 32.4121 292.27 31.709 291.812 31.1816C291.367 30.6543 290.658 30.3906 289.686 30.3906C288.83 30.3906 288.156 30.5957 287.664 31.0059C287.184 31.416 286.943 31.9785 286.943 32.6934H281.863C281.863 31.5918 282.203 30.5723 282.883 29.6348C283.562 28.6973 284.523 27.9648 285.766 27.4375C287.008 26.8984 288.402 26.6289 289.949 26.6289C292.293 26.6289 294.15 27.2207 295.521 28.4043C296.904 29.5762 297.596 31.2285 297.596 33.3613V41.6055C297.607 43.4102 297.859 44.7754 298.352 45.7012V46H293.219ZM289.018 42.4668C289.768 42.4668 290.459 42.3027 291.092 41.9746C291.725 41.6348 292.193 41.1836 292.498 40.6211V37.3516H290.6C288.057 37.3516 286.703 38.2305 286.539 39.9883L286.521 40.2871C286.521 40.9199 286.744 41.4414 287.189 41.8516C287.635 42.2617 288.244 42.4668 289.018 42.4668ZM312.186 31.7441C311.494 31.6504 310.885 31.6035 310.357 31.6035C308.436 31.6035 307.176 32.2539 306.578 33.5547V46H301.498V26.9805H306.297L306.438 29.248C307.457 27.502 308.869 26.6289 310.674 26.6289C311.236 26.6289 311.764 26.7051 312.256 26.8574L312.186 31.7441ZM323.049 46.3516C320.26 46.3516 317.986 45.4961 316.229 43.7852C314.482 42.0742 313.609 39.7949 313.609 36.9473V36.4551C313.609 34.5449 313.979 32.8398 314.717 31.3398C315.455 29.8281 316.498 28.668 317.846 27.8594C319.205 27.0391 320.752 26.6289 322.486 26.6289C325.088 26.6289 327.133 27.4492 328.621 29.0898C330.121 30.7305 330.871 33.0566 330.871 36.0684V38.1426H318.76C318.924 39.3848 319.416 40.3809 320.236 41.1309C321.068 41.8809 322.117 42.2559 323.383 42.2559C325.34 42.2559 326.869 41.5469 327.971 40.1289L330.467 42.9238C329.705 44.002 328.674 44.8457 327.373 45.4551C326.072 46.0527 324.631 46.3516 323.049 46.3516ZM322.469 30.7422C321.461 30.7422 320.641 31.082 320.008 31.7617C319.387 32.4414 318.988 33.4141 318.812 34.6797H325.879V34.2754C325.855 33.1504 325.551 32.2832 324.965 31.6738C324.379 31.0527 323.547 30.7422 322.469 30.7422ZM338.447 26.9805L338.605 29.1777C339.965 27.4785 341.787 26.6289 344.072 26.6289C346.088 26.6289 347.588 27.2207 348.572 28.4043C349.557 29.5879 350.061 31.3574 350.084 33.7129V46H345.004V33.8359C345.004 32.7578 344.77 31.9785 344.301 31.498C343.832 31.0059 343.053 30.7598 341.963 30.7598C340.533 30.7598 339.461 31.3691 338.746 32.5879V46H333.666V26.9805H338.447ZM360.033 22.3047V26.9805H363.285V30.707H360.033V40.1992C360.033 40.9023 360.168 41.4062 360.438 41.7109C360.707 42.0156 361.223 42.168 361.984 42.168C362.547 42.168 363.045 42.127 363.479 42.0449V45.8945C362.482 46.1992 361.457 46.3516 360.402 46.3516C356.84 46.3516 355.023 44.5527 354.953 40.9551V30.707H352.176V26.9805H354.953V22.3047H360.033Z" fill="white"/>
<path d="M35.0001 9C21.2149 9 10 20.2149 10 33.9999C10 47.7849 21.2149 59 35.0001 59C48.7853 59 60 47.7851 60 33.9999C60 20.2147 48.7851 9 35.0001 9ZM35.0001 55.7602C23.0015 55.7602 13.2399 45.9986 13.2399 34C13.2399 22.0014 23.0014 12.2398 35.0001 12.2398C46.9988 12.2398 56.7603 22.0014 56.7603 33.9999C56.7603 45.9984 46.9986 55.7602 35.0001 55.7602Z" fill="white"/>
<path d="M35.0001 17.0997C25.6827 17.0997 18.0997 24.6815 18.0997 34C18.0997 43.3022 25.6645 50.9004 35.0001 50.9004C44.3412 50.9004 51.9004 43.2958 51.9004 34C51.9003 24.7031 44.3362 17.0997 35.0001 17.0997ZM39.4278 21.0766C41.1152 21.6563 42.6544 22.5577 43.9717 23.7074L40.7451 25.5702C40.4785 25.7241 40.1337 25.7241 39.8669 25.5702C39.596 25.4139 39.4279 25.1225 39.4279 24.8097V21.0766H39.4278ZM30.5722 21.0767V24.8099C30.5722 25.1227 30.4039 25.414 30.133 25.5704C29.8664 25.7244 29.5214 25.7244 29.2549 25.5704L26.0283 23.7076C27.3456 22.5578 28.8847 21.6563 30.5722 21.0767ZM21.3395 33.9999C21.3395 33.1015 21.4276 32.2232 21.5941 31.3727L24.8272 33.2393C25.0981 33.3957 25.2662 33.6871 25.2662 33.9999C25.2662 34.3127 25.0979 34.6041 24.827 34.7605L21.5939 36.627C21.4276 35.7766 21.3395 34.8984 21.3395 33.9999ZM30.5722 46.9234C28.8848 46.3436 27.3458 45.4423 26.0284 44.2926L29.255 42.4297C29.5215 42.2759 29.8661 42.2757 30.1331 42.4299C30.404 42.5861 30.5721 42.8776 30.5721 43.1902V46.9234H30.5722ZM39.4277 46.9234V43.1902C39.4277 42.8774 39.596 42.5861 39.867 42.4296C40.1336 42.2758 40.4782 42.2758 40.745 42.4297L43.9716 44.2925C42.6544 45.4423 41.1152 46.3436 39.4277 46.9234ZM47.3701 39.7915C47.0478 40.4779 46.656 41.1632 46.1872 41.8299C46.1871 41.8301 46.187 41.8302 46.1868 41.8305L42.3651 39.624C41.0903 38.8877 39.5191 38.8892 38.2471 39.6239C36.9769 40.3571 36.188 41.7235 36.188 43.1901V47.6081C35.8278 47.6396 35.4279 47.6592 35.0292 47.66C35.0098 47.66 34.9903 47.66 34.9708 47.66C34.593 47.6591 34.1914 47.6413 33.812 47.6081V43.1901C33.812 41.7235 33.0229 40.3571 31.7532 39.624C30.4783 38.8877 28.9072 38.8892 27.6351 39.6239L23.8132 41.8305C23.8131 41.8303 23.813 41.8302 23.8128 41.8299C23.3403 41.1579 22.9538 40.4814 22.6222 39.7746L26.4473 37.5663C27.7173 36.8329 28.5062 35.4664 28.5062 34C28.5062 32.5334 27.7172 31.167 26.4472 30.4338L22.6222 28.2255C22.9478 27.5254 23.3531 26.8243 23.8127 26.1704C23.8129 26.1702 23.813 26.1699 23.8132 26.1696L27.6351 28.3762C28.9078 29.1109 30.4784 29.112 31.753 28.3762C33.0231 27.643 33.8121 26.2766 33.8121 24.81V20.392C34.1682 20.3604 34.5805 20.3409 34.9712 20.3401C34.9904 20.3401 35.0097 20.3401 35.0289 20.3401C35.4233 20.341 35.8354 20.3608 36.188 20.392V24.81C36.188 26.2766 36.977 27.643 38.2471 28.3762C39.5199 29.1109 41.0904 29.112 42.365 28.3762L46.1869 26.1696C46.6478 26.8281 47.0459 27.5115 47.378 28.2255L43.5512 30.4349C42.2818 31.1678 41.4936 32.5348 41.4944 34.0024C41.4952 35.4682 42.2842 36.834 43.5534 37.5667L47.378 39.7748C47.3753 39.7803 47.3727 39.7859 47.3701 39.7915ZM45.1732 34.7607C44.9026 34.6045 44.7344 34.3131 44.7343 34.0006C44.7342 33.6874 44.9015 33.3961 45.1711 33.2405L48.406 31.3728C48.5723 32.2233 48.6605 33.1016 48.6605 34C48.6605 34.8984 48.5725 35.7767 48.406 36.6271L45.1732 34.7607Z" fill="white"/>
<path d="M35.0001 28.7135C32.0851 28.7135 29.7135 31.085 29.7135 34C29.7135 36.915 32.085 39.2866 35.0001 39.2866C37.9152 39.2866 40.2867 36.915 40.2867 34C40.2866 31.085 37.915 28.7135 35.0001 28.7135ZM35.0001 36.0467C33.8716 36.0467 32.9533 35.1285 32.9533 33.9999C32.9533 32.8713 33.8714 31.9533 35.0001 31.9533C36.1288 31.9533 37.0469 32.8714 37.0469 33.9999C37.0469 35.1284 36.1286 36.0467 35.0001 36.0467Z" fill="white"/>
<rect x="1" y="1" width="378" height="67" rx="4" stroke="#EFEFEF" stroke-width="2"/>
</svg>
