<svg width="25" height="25" viewBox="0 0 25 25" fill="none" xmlns="http://www.w3.org/2000/svg">
<path d="M24.7323 18.9602C23.8017 17.2009 20.57 15.2933 20.4277 15.2099C20.0124 14.9735 19.5791 14.8484 19.1736 14.8484C18.5706 14.8484 18.077 15.1246 17.7781 15.627C17.3053 16.1924 16.7191 16.8533 16.5768 16.9557C15.4756 17.7028 14.6136 17.618 13.6598 16.6642L8.33645 11.3404C7.38867 10.3927 7.30154 9.51997 8.04354 8.42482C8.14736 8.28161 8.80825 7.69487 9.37368 7.22167C9.73425 7.00709 9.98174 6.68823 10.0902 6.29707C10.2343 5.7766 10.1282 5.16437 9.78801 4.5679C9.70783 4.43071 7.7993 1.19854 6.04093 0.268371C5.7128 0.0945728 5.34296 0.00280762 4.97219 0.00280762C4.36135 0.00280762 3.78666 0.241026 3.35471 0.672508L2.17845 1.84831C0.318117 3.70818 -0.355291 5.81646 0.175835 8.1143C0.618903 10.0293 1.9101 12.0672 4.01422 14.1708L10.8294 20.986C13.4925 23.649 16.0313 24.9996 18.3755 24.9996C20.1 24.9996 21.7068 24.2668 23.1519 22.8222L24.3277 21.6464C25.0424 20.9322 25.2046 19.8524 24.7323 18.9602Z" fill="white"/>
<path d="M13.7002 11.5522C13.7568 11.5759 13.817 11.5879 13.8773 11.5879H19.4388C19.6946 11.5879 19.9023 11.3807 19.9023 11.1245C19.9023 10.8682 19.6946 10.661 19.4388 10.661H14.9961L22.0838 3.57329C22.265 3.39207 22.265 3.09917 22.0838 2.91795C21.9026 2.73674 21.6097 2.73674 21.4284 2.91795L14.3407 10.0057V5.56292C14.3407 5.30663 14.1331 5.09946 13.8773 5.09946C13.6214 5.09946 13.4138 5.30663 13.4138 5.56292V11.1245C13.4138 11.1847 13.4263 11.245 13.4495 11.3015C13.4968 11.415 13.5872 11.5054 13.7002 11.5522Z" fill="white"/>
</svg>
