<svg width="31" height="30" viewBox="0 0 31 30" fill="none" xmlns="http://www.w3.org/2000/svg">
<path d="M15.0577 0C6.78647 0 0.0577393 6.72873 0.0577393 15C0.0577393 23.2713 6.78647 30 15.0577 30C15.209 30 15.3565 29.9813 15.5077 29.9775L15.5602 29.9875C15.6015 29.995 15.6415 30 15.6828 30C15.7402 30 15.799 29.9925 15.854 29.9763L15.924 29.9563C23.7915 29.5025 30.0577 22.9788 30.0577 15C30.0577 6.72873 23.329 0 15.0577 0ZM23.9727 25.4487C23.9139 25.2575 23.7815 25.0962 23.589 25.0325L20.299 23.9375C19.1503 23.4587 18.6153 21.62 18.4903 20.8825C19.3415 20.0912 20.1278 18.9125 20.1278 17.8475C20.1278 17.485 20.2303 17.3462 20.2103 17.3425C20.4053 17.2937 20.564 17.155 20.639 16.9687C20.7003 16.8149 21.239 15.4412 21.239 14.515C21.239 14.4637 21.2328 14.4125 21.2203 14.3637C21.1415 14.05 20.9578 13.7337 20.6828 13.5362V10.6262C20.6828 8.82744 20.1353 8.07369 19.5553 7.63746C19.4253 6.74244 18.4665 5.00121 15.0578 5.00121C11.5728 5.00121 9.4328 8.27748 9.4328 10.6262V13.5362C9.15782 13.7337 8.97407 14.05 8.89532 14.3637C8.88284 14.4137 8.87657 14.465 8.87657 14.515C8.87657 15.4412 9.41534 16.8149 9.47657 16.9687C9.55157 17.155 9.6503 17.2737 9.8453 17.3224C9.88532 17.3462 9.9878 17.4862 9.9878 17.8474C9.9878 18.9124 10.7741 20.0912 11.6253 20.8824C11.5016 21.6186 10.9716 23.4561 9.85907 23.9211L6.52532 25.0324C6.33407 25.0961 6.19655 25.2536 6.13655 25.4449C3.18524 22.9212 1.30526 19.1787 1.30526 15C1.30526 7.41873 7.47401 1.24998 15.0553 1.24998C22.6365 1.24998 28.8052 7.41873 28.8052 15C28.8078 19.18 26.9265 22.925 23.9727 25.4487Z" fill="white"/>
</svg>
